<svg width="320" height="430" viewBox="0 0 320 430" fill="none" xmlns="http://www.w3.org/2000/svg">
<g filter="url(#filter0_d_73_13632)">
<g clip-path="url(#clip0_73_13632)">
<rect x="35" y="35" width="250" height="360" rx="10" fill="#1E1C1A"/>
<g filter="url(#filter1_d_73_13632)">
<rect x="35" y="35" width="250" height="360" rx="10" fill="url(#paint0_linear_73_13632)"/>
<rect x="35" y="35" width="250" height="360" rx="10" fill="url(#paint1_radial_73_13632)" fill-opacity="0.04"/>
</g>
<rect x="48" y="343" width="133" height="32" rx="4" fill="url(#paint2_linear_73_13632)"/>
<path d="M66.82 354.27V364H65.224V359.744H60.646V364H59.05V354.27H60.646V358.442H65.224V354.27H66.82ZM75.9911 359.954C75.9911 360.243 75.9724 360.505 75.9351 360.738H70.0411C70.0878 361.354 70.3164 361.849 70.7271 362.222C71.1378 362.595 71.6418 362.782 72.2391 362.782C73.0978 362.782 73.7044 362.423 74.0591 361.704H75.7811C75.5478 362.413 75.1231 362.997 74.5071 363.454C73.9004 363.902 73.1444 364.126 72.2391 364.126C71.5018 364.126 70.8391 363.963 70.2511 363.636C69.6724 363.3 69.2151 362.833 68.8791 362.236C68.5524 361.629 68.3891 360.929 68.3891 360.136C68.3891 359.343 68.5478 358.647 68.8651 358.05C69.1918 357.443 69.6444 356.977 70.2231 356.65C70.8111 356.323 71.4831 356.16 72.2391 356.16C72.9671 356.16 73.6158 356.319 74.1851 356.636C74.7544 356.953 75.1978 357.401 75.5151 357.98C75.8324 358.549 75.9911 359.207 75.9911 359.954ZM74.3251 359.45C74.3158 358.862 74.1058 358.391 73.6951 358.036C73.2844 357.681 72.7758 357.504 72.1691 357.504C71.6184 357.504 71.1471 357.681 70.7551 358.036C70.3631 358.381 70.1298 358.853 70.0551 359.45H74.3251ZM86.8997 356.16C87.5064 356.16 88.0477 356.286 88.5237 356.538C89.0091 356.79 89.3871 357.163 89.6577 357.658C89.9377 358.153 90.0777 358.75 90.0777 359.45V364H88.4957V359.688C88.4957 358.997 88.3231 358.47 87.9777 358.106C87.6324 357.733 87.1611 357.546 86.5637 357.546C85.9664 357.546 85.4904 357.733 85.1357 358.106C84.7904 358.47 84.6177 358.997 84.6177 359.688V364H83.0357V359.688C83.0357 358.997 82.8631 358.47 82.5177 358.106C82.1724 357.733 81.7011 357.546 81.1037 357.546C80.5064 357.546 80.0304 357.733 79.6757 358.106C79.3304 358.47 79.1577 358.997 79.1577 359.688V364H77.5617V356.286H79.1577V357.168C79.4191 356.851 79.7504 356.603 80.1517 356.426C80.5531 356.249 80.9824 356.16 81.4397 356.16C82.0557 356.16 82.6064 356.291 83.0917 356.552C83.5771 356.813 83.9504 357.191 84.2117 357.686C84.4451 357.219 84.8091 356.851 85.3037 356.58C85.7984 356.3 86.3304 356.16 86.8997 356.16ZM99.1786 359.954C99.1786 360.243 99.1599 360.505 99.1226 360.738H93.2286C93.2753 361.354 93.5039 361.849 93.9146 362.222C94.3253 362.595 94.8293 362.782 95.4266 362.782C96.2853 362.782 96.8919 362.423 97.2466 361.704H98.9686C98.7353 362.413 98.3106 362.997 97.6946 363.454C97.0879 363.902 96.3319 364.126 95.4266 364.126C94.6893 364.126 94.0266 363.963 93.4386 363.636C92.8599 363.3 92.4026 362.833 92.0666 362.236C91.7399 361.629 91.5766 360.929 91.5766 360.136C91.5766 359.343 91.7353 358.647 92.0526 358.05C92.3793 357.443 92.8319 356.977 93.4106 356.65C93.9986 356.323 94.6706 356.16 95.4266 356.16C96.1546 356.16 96.8033 356.319 97.3726 356.636C97.9419 356.953 98.3853 357.401 98.7026 357.98C99.0199 358.549 99.1786 359.207 99.1786 359.954ZM97.5126 359.45C97.5033 358.862 97.2933 358.391 96.8826 358.036C96.4719 357.681 95.9633 357.504 95.3566 357.504C94.8059 357.504 94.3346 357.681 93.9426 358.036C93.5506 358.381 93.3173 358.853 93.2426 359.45H97.5126ZM104.641 356.16C105.248 356.16 105.789 356.286 106.265 356.538C106.751 356.79 107.129 357.163 107.399 357.658C107.67 358.153 107.805 358.75 107.805 359.45V364H106.223V359.688C106.223 358.997 106.051 358.47 105.705 358.106C105.36 357.733 104.889 357.546 104.291 357.546C103.694 357.546 103.218 357.733 102.863 358.106C102.518 358.47 102.345 358.997 102.345 359.688V364H100.749V356.286H102.345V357.168C102.607 356.851 102.938 356.603 103.339 356.426C103.75 356.249 104.184 356.16 104.641 356.16ZM118.686 359.002C119.208 359.095 119.652 359.371 120.016 359.828C120.38 360.285 120.562 360.803 120.562 361.382C120.562 361.877 120.431 362.325 120.17 362.726C119.918 363.118 119.549 363.431 119.064 363.664C118.578 363.888 118.014 364 117.37 364H113.478V354.27H117.188C117.85 354.27 118.42 354.382 118.896 354.606C119.372 354.83 119.731 355.133 119.974 355.516C120.216 355.889 120.338 356.309 120.338 356.776C120.338 357.336 120.188 357.803 119.89 358.176C119.591 358.549 119.19 358.825 118.686 359.002ZM115.074 358.358H117.048C117.57 358.358 117.976 358.241 118.266 358.008C118.564 357.765 118.714 357.42 118.714 356.972C118.714 356.533 118.564 356.193 118.266 355.95C117.976 355.698 117.57 355.572 117.048 355.572H115.074V358.358ZM117.23 362.698C117.771 362.698 118.196 362.567 118.504 362.306C118.812 362.045 118.966 361.681 118.966 361.214C118.966 360.738 118.802 360.36 118.476 360.08C118.149 359.8 117.715 359.66 117.174 359.66H115.074V362.698H117.23ZM121.764 360.108C121.764 359.333 121.923 358.647 122.24 358.05C122.567 357.453 123.005 356.991 123.556 356.664C124.116 356.328 124.732 356.16 125.404 356.16C126.011 356.16 126.538 356.281 126.986 356.524C127.443 356.757 127.807 357.051 128.078 357.406V356.286H129.688V364H128.078V362.852C127.807 363.216 127.439 363.519 126.972 363.762C126.505 364.005 125.973 364.126 125.376 364.126C124.713 364.126 124.107 363.958 123.556 363.622C123.005 363.277 122.567 362.801 122.24 362.194C121.923 361.578 121.764 360.883 121.764 360.108ZM128.078 360.136C128.078 359.604 127.966 359.142 127.742 358.75C127.527 358.358 127.243 358.059 126.888 357.854C126.533 357.649 126.151 357.546 125.74 357.546C125.329 357.546 124.947 357.649 124.592 357.854C124.237 358.05 123.948 358.344 123.724 358.736C123.509 359.119 123.402 359.576 123.402 360.108C123.402 360.64 123.509 361.107 123.724 361.508C123.948 361.909 124.237 362.217 124.592 362.432C124.956 362.637 125.339 362.74 125.74 362.74C126.151 362.74 126.533 362.637 126.888 362.432C127.243 362.227 127.527 361.928 127.742 361.536C127.966 361.135 128.078 360.668 128.078 360.136ZM134.836 360.15L138.392 364H136.236L133.38 360.682V364H131.784V353.64H133.38V359.66L136.18 356.286H138.392L134.836 360.15ZM141.398 357.588V361.858C141.398 362.147 141.464 362.357 141.594 362.488C141.734 362.609 141.968 362.67 142.294 362.67H143.274V364H142.014C141.296 364 140.745 363.832 140.362 363.496C139.98 363.16 139.788 362.614 139.788 361.858V357.588H138.878V356.286H139.788V354.368H141.398V356.286H143.274V357.588H141.398ZM146.341 356.286V364H144.745V356.286H146.341ZM150.033 357.406C150.266 357.014 150.574 356.711 150.957 356.496C151.349 356.272 151.811 356.16 152.343 356.16V357.812H151.937C151.311 357.812 150.835 357.971 150.509 358.288C150.191 358.605 150.033 359.156 150.033 359.94V364H148.437V356.286H150.033V357.406ZM157.964 355.768H159.98L163.2 358.946L159.98 362.124H157.964L161.198 358.946L157.964 355.768Z" fill="#151522"/>
<path d="M58.7655 274L54.4615 269.024V274H52.6375V262.88H54.4615V267.952L58.7815 262.88H61.0695L56.2375 268.448L61.1495 274H58.7655ZM62.1545 269.552C62.1545 268.667 62.3358 267.883 62.6985 267.2C63.0718 266.517 63.5732 265.989 64.2025 265.616C64.8425 265.232 65.5465 265.04 66.3145 265.04C67.0078 265.04 67.6105 265.179 68.1225 265.456C68.6452 265.723 69.0612 266.059 69.3705 266.464V265.184H71.2105V274H69.3705V272.688C69.0612 273.104 68.6398 273.451 68.1065 273.728C67.5732 274.005 66.9652 274.144 66.2825 274.144C65.5252 274.144 64.8318 273.952 64.2025 273.568C63.5732 273.173 63.0718 272.629 62.6985 271.936C62.3358 271.232 62.1545 270.437 62.1545 269.552ZM69.3705 269.584C69.3705 268.976 69.2425 268.448 68.9865 268C68.7412 267.552 68.4158 267.211 68.0105 266.976C67.6052 266.741 67.1678 266.624 66.6985 266.624C66.2292 266.624 65.7918 266.741 65.3865 266.976C64.9812 267.2 64.6505 267.536 64.3945 267.984C64.1492 268.421 64.0265 268.944 64.0265 269.552C64.0265 270.16 64.1492 270.693 64.3945 271.152C64.6505 271.611 64.9812 271.963 65.3865 272.208C65.8025 272.443 66.2398 272.56 66.6985 272.56C67.1678 272.56 67.6052 272.443 68.0105 272.208C68.4158 271.973 68.7412 271.632 68.9865 271.184C69.2425 270.725 69.3705 270.192 69.3705 269.584ZM78.1663 265.04C78.8383 265.04 79.4356 265.184 79.9583 265.472C80.4916 265.76 80.9076 266.187 81.2063 266.752C81.5156 267.317 81.6703 268 81.6703 268.8V274H79.8623V269.072C79.8623 268.283 79.6649 267.68 79.2703 267.264C78.8756 266.837 78.3369 266.624 77.6543 266.624C76.9716 266.624 76.4276 266.837 76.0223 267.264C75.6276 267.68 75.4303 268.283 75.4303 269.072V274H73.6063V262.16H75.4303V266.208C75.7396 265.835 76.1289 265.547 76.5983 265.344C77.0783 265.141 77.6009 265.04 78.1663 265.04ZM87.4049 272.368L89.9009 265.184H91.8369L88.4769 274H86.3009L82.9569 265.184H84.9089L87.4049 272.368ZM101.296 269.376C101.296 269.707 101.274 270.005 101.232 270.272H94.4956C94.549 270.976 94.8103 271.541 95.2796 271.968C95.749 272.395 96.325 272.608 97.0076 272.608C97.989 272.608 98.6823 272.197 99.0876 271.376H101.056C100.789 272.187 100.304 272.853 99.5996 273.376C98.9063 273.888 98.0423 274.144 97.0076 274.144C96.165 274.144 95.4076 273.957 94.7356 273.584C94.0743 273.2 93.5516 272.667 93.1676 271.984C92.7943 271.291 92.6076 270.491 92.6076 269.584C92.6076 268.677 92.789 267.883 93.1516 267.2C93.525 266.507 94.0423 265.973 94.7036 265.6C95.3756 265.227 96.1436 265.04 97.0076 265.04C97.8396 265.04 98.581 265.221 99.2316 265.584C99.8823 265.947 100.389 266.459 100.752 267.12C101.114 267.771 101.296 268.523 101.296 269.376ZM99.3916 268.8C99.381 268.128 99.141 267.589 98.6716 267.184C98.2023 266.779 97.621 266.576 96.9276 266.576C96.2983 266.576 95.7596 266.779 95.3116 267.184C94.8636 267.579 94.597 268.117 94.5116 268.8H99.3916ZM113.791 262.88V264.368H109.071V267.648H112.751V269.136H109.071V274H107.247V262.88H113.791ZM114.873 269.552C114.873 268.667 115.055 267.883 115.417 267.2C115.791 266.517 116.292 265.989 116.921 265.616C117.561 265.232 118.265 265.04 119.033 265.04C119.727 265.04 120.329 265.179 120.841 265.456C121.364 265.723 121.78 266.059 122.089 266.464V265.184H123.929V274H122.089V272.688C121.78 273.104 121.359 273.451 120.825 273.728C120.292 274.005 119.684 274.144 119.001 274.144C118.244 274.144 117.551 273.952 116.921 273.568C116.292 273.173 115.791 272.629 115.417 271.936C115.055 271.232 114.873 270.437 114.873 269.552ZM122.089 269.584C122.089 268.976 121.961 268.448 121.705 268C121.46 267.552 121.135 267.211 120.729 266.976C120.324 266.741 119.887 266.624 119.417 266.624C118.948 266.624 118.511 266.741 118.105 266.976C117.7 267.2 117.369 267.536 117.113 267.984C116.868 268.421 116.745 268.944 116.745 269.552C116.745 270.16 116.868 270.693 117.113 271.152C117.369 271.611 117.7 271.963 118.105 272.208C118.521 272.443 118.959 272.56 119.417 272.56C119.887 272.56 120.324 272.443 120.729 272.208C121.135 271.973 121.46 271.632 121.705 271.184C121.961 270.725 122.089 270.192 122.089 269.584ZM128.149 262.16V274H126.325V262.16H128.149ZM132.368 265.184V274H130.544V265.184H132.368Z" fill="white"/>
<path d="M56.46 300L53.016 296.184V300H51.924V291.636H53.016V295.512L56.472 291.636H57.852L54.06 295.824L57.888 300H56.46ZM58.6996 296.688C58.6996 296.016 58.8356 295.428 59.1076 294.924C59.3796 294.412 59.7516 294.016 60.2236 293.736C60.7036 293.456 61.2356 293.316 61.8196 293.316C62.3956 293.316 62.8956 293.44 63.3196 293.688C63.7436 293.936 64.0596 294.248 64.2676 294.624V293.424H65.3716V300H64.2676V298.776C64.0516 299.16 63.7276 299.48 63.2956 299.736C62.8716 299.984 62.3756 300.108 61.8076 300.108C61.2236 300.108 60.6956 299.964 60.2236 299.676C59.7516 299.388 59.3796 298.984 59.1076 298.464C58.8356 297.944 58.6996 297.352 58.6996 296.688ZM64.2676 296.7C64.2676 296.204 64.1676 295.772 63.9676 295.404C63.7676 295.036 63.4956 294.756 63.1516 294.564C62.8156 294.364 62.4436 294.264 62.0356 294.264C61.6276 294.264 61.2556 294.36 60.9196 294.552C60.5836 294.744 60.3156 295.024 60.1156 295.392C59.9156 295.76 59.8156 296.192 59.8156 296.688C59.8156 297.192 59.9156 297.632 60.1156 298.008C60.3156 298.376 60.5836 298.66 60.9196 298.86C61.2556 299.052 61.6276 299.148 62.0356 299.148C62.4436 299.148 62.8156 299.052 63.1516 298.86C63.4956 298.66 63.7676 298.376 63.9676 298.008C64.1676 297.632 64.2676 297.196 64.2676 296.7ZM70.481 293.304C70.977 293.304 71.425 293.412 71.825 293.628C72.225 293.836 72.537 294.152 72.761 294.576C72.993 295 73.109 295.516 73.109 296.124V300H72.029V296.28C72.029 295.624 71.865 295.124 71.537 294.78C71.209 294.428 70.761 294.252 70.193 294.252C69.617 294.252 69.157 294.432 68.813 294.792C68.477 295.152 68.309 295.676 68.309 296.364V300H67.217V291.12H68.309V294.36C68.525 294.024 68.821 293.764 69.197 293.58C69.581 293.396 70.009 293.304 70.481 293.304ZM77.3408 298.992L79.3808 293.424H80.5448L77.9648 300H76.6928L74.1128 293.424H75.2888L77.3408 298.992ZM87.6193 296.46C87.6193 296.668 87.6073 296.888 87.5833 297.12H82.3273C82.3673 297.768 82.5873 298.276 82.9873 298.644C83.3953 299.004 83.8873 299.184 84.4633 299.184C84.9353 299.184 85.3273 299.076 85.6393 298.86C85.9593 298.636 86.1833 298.34 86.3113 297.972H87.4873C87.3113 298.604 86.9593 299.12 86.4313 299.52C85.9033 299.912 85.2473 300.108 84.4633 300.108C83.8393 300.108 83.2793 299.968 82.7833 299.688C82.2953 299.408 81.9113 299.012 81.6313 298.5C81.3513 297.98 81.2113 297.38 81.2113 296.7C81.2113 296.02 81.3473 295.424 81.6193 294.912C81.8913 294.4 82.2713 294.008 82.7593 293.736C83.2553 293.456 83.8233 293.316 84.4633 293.316C85.0873 293.316 85.6393 293.452 86.1193 293.724C86.5993 293.996 86.9673 294.372 87.2233 294.852C87.4873 295.324 87.6193 295.86 87.6193 296.46ZM86.4913 296.232C86.4913 295.816 86.3993 295.46 86.2153 295.164C86.0313 294.86 85.7793 294.632 85.4593 294.48C85.1473 294.32 84.7993 294.24 84.4153 294.24C83.8633 294.24 83.3913 294.416 82.9993 294.768C82.6153 295.12 82.3953 295.608 82.3393 296.232H86.4913ZM100.168 293.304C100.68 293.304 101.136 293.412 101.536 293.628C101.936 293.836 102.252 294.152 102.484 294.576C102.716 295 102.832 295.516 102.832 296.124V300H101.752V296.28C101.752 295.624 101.588 295.124 101.26 294.78C100.94 294.428 100.504 294.252 99.9519 294.252C99.3839 294.252 98.9319 294.436 98.5959 294.804C98.2599 295.164 98.0919 295.688 98.0919 296.376V300H97.0119V296.28C97.0119 295.624 96.8479 295.124 96.5199 294.78C96.1999 294.428 95.7639 294.252 95.2119 294.252C94.6439 294.252 94.1919 294.436 93.8559 294.804C93.5199 295.164 93.3519 295.688 93.3519 296.376V300H92.2599V293.424H93.3519V294.372C93.5679 294.028 93.8559 293.764 94.2159 293.58C94.5839 293.396 94.9879 293.304 95.4279 293.304C95.9799 293.304 96.4679 293.428 96.8919 293.676C97.3159 293.924 97.6319 294.288 97.8399 294.768C98.0239 294.304 98.3279 293.944 98.7519 293.688C99.1759 293.432 99.6479 293.304 100.168 293.304ZM105.187 292.356C104.979 292.356 104.803 292.284 104.659 292.14C104.515 291.996 104.443 291.82 104.443 291.612C104.443 291.404 104.515 291.228 104.659 291.084C104.803 290.94 104.979 290.868 105.187 290.868C105.387 290.868 105.555 290.94 105.691 291.084C105.835 291.228 105.907 291.404 105.907 291.612C105.907 291.82 105.835 291.996 105.691 292.14C105.555 292.284 105.387 292.356 105.187 292.356ZM105.715 293.424V300H104.623V293.424H105.715ZM111.34 292.356C111.132 292.356 110.956 292.284 110.812 292.14C110.668 291.996 110.596 291.82 110.596 291.612C110.596 291.404 110.668 291.228 110.812 291.084C110.956 290.94 111.132 290.868 111.34 290.868C111.54 290.868 111.708 290.94 111.844 291.084C111.988 291.228 112.06 291.404 112.06 291.612C112.06 291.82 111.988 291.996 111.844 292.14C111.708 292.284 111.54 292.356 111.34 292.356ZM111.868 293.424V300H110.776V293.424H111.868ZM116.525 299.184C117.005 299.184 117.405 299.072 117.725 298.848C118.045 298.624 118.265 298.304 118.385 297.888H119.561C119.401 298.512 119.085 299.024 118.613 299.424C118.149 299.816 117.565 300.04 116.861 300.096V300.696C117.333 300.688 117.709 300.788 117.989 300.996C118.269 301.204 118.409 301.5 118.409 301.884C118.409 302.26 118.273 302.56 118.001 302.784C117.729 303.008 117.377 303.12 116.945 303.12H115.565V302.412H116.729C116.993 302.412 117.185 302.372 117.305 302.292C117.433 302.212 117.497 302.076 117.497 301.884C117.497 301.7 117.433 301.568 117.305 301.488C117.185 301.408 116.993 301.368 116.729 301.368H116.129V300.084C115.577 300.028 115.089 299.856 114.665 299.568C114.241 299.272 113.909 298.88 113.669 298.392C113.437 297.896 113.321 297.332 113.321 296.7C113.321 296.02 113.457 295.428 113.729 294.924C114.001 294.412 114.377 294.016 114.857 293.736C115.345 293.456 115.901 293.316 116.525 293.316C117.333 293.316 117.997 293.512 118.517 293.904C119.045 294.296 119.393 294.84 119.561 295.536H118.385C118.273 295.136 118.053 294.82 117.725 294.588C117.405 294.356 117.005 294.24 116.525 294.24C115.901 294.24 115.397 294.456 115.013 294.888C114.629 295.312 114.437 295.916 114.437 296.7C114.437 297.492 114.629 298.104 115.013 298.536C115.397 298.968 115.901 299.184 116.525 299.184ZM121.582 292.356C121.374 292.356 121.198 292.284 121.054 292.14C120.91 291.996 120.838 291.82 120.838 291.612C120.838 291.404 120.91 291.228 121.054 291.084C121.198 290.94 121.374 290.868 121.582 290.868C121.782 290.868 121.95 290.94 122.086 291.084C122.23 291.228 122.302 291.404 122.302 291.612C122.302 291.82 122.23 291.996 122.086 292.14C121.95 292.284 121.782 292.356 121.582 292.356ZM122.11 293.424V300H121.018V293.424H122.11ZM125.303 294.324V298.2C125.303 298.52 125.371 298.748 125.507 298.884C125.643 299.012 125.879 299.076 126.215 299.076H127.019V300H126.035C125.427 300 124.971 299.86 124.667 299.58C124.363 299.3 124.211 298.84 124.211 298.2V294.324H123.359V293.424H124.211V291.768H125.303V293.424H127.019V294.324H125.303ZM128.906 292.356C128.698 292.356 128.522 292.284 128.378 292.14C128.234 291.996 128.162 291.82 128.162 291.612C128.162 291.404 128.234 291.228 128.378 291.084C128.522 290.94 128.698 290.868 128.906 290.868C129.106 290.868 129.274 290.94 129.41 291.084C129.554 291.228 129.626 291.404 129.626 291.612C129.626 291.82 129.554 291.996 129.41 292.14C129.274 292.284 129.106 292.356 128.906 292.356ZM129.434 293.424V300H128.342V293.424H129.434ZM134.499 293.304C135.299 293.304 135.947 293.548 136.443 294.036C136.939 294.516 137.187 295.212 137.187 296.124V300H136.107V296.28C136.107 295.624 135.943 295.124 135.615 294.78C135.287 294.428 134.839 294.252 134.271 294.252C133.695 294.252 133.235 294.432 132.891 294.792C132.555 295.152 132.387 295.676 132.387 296.364V300H131.295V293.424H132.387V294.36C132.603 294.024 132.895 293.764 133.263 293.58C133.639 293.396 134.051 293.304 134.499 293.304ZM139.535 292.356C139.327 292.356 139.151 292.284 139.007 292.14C138.863 291.996 138.791 291.82 138.791 291.612C138.791 291.404 138.863 291.228 139.007 291.084C139.151 290.94 139.327 290.868 139.535 290.868C139.735 290.868 139.903 290.94 140.039 291.084C140.183 291.228 140.255 291.404 140.255 291.612C140.255 291.82 140.183 291.996 140.039 292.14C139.903 292.284 139.735 292.356 139.535 292.356ZM140.063 293.424V300H138.971V293.424H140.063ZM142.74 299.1H145.968V300H141.492V299.1L144.684 294.312H141.516V293.424H145.944V294.312L142.74 299.1ZM153.26 294.324H151.88V300H150.788V294.324H149.936V293.424H150.788V292.956C150.788 292.22 150.976 291.684 151.352 291.348C151.736 291.004 152.348 290.832 153.188 290.832V291.744C152.708 291.744 152.368 291.84 152.168 292.032C151.976 292.216 151.88 292.524 151.88 292.956V293.424H153.26V294.324ZM154.125 296.688C154.125 296.016 154.261 295.428 154.533 294.924C154.805 294.412 155.177 294.016 155.649 293.736C156.129 293.456 156.661 293.316 157.245 293.316C157.821 293.316 158.321 293.44 158.745 293.688C159.169 293.936 159.485 294.248 159.693 294.624V293.424H160.797V300H159.693V298.776C159.477 299.16 159.153 299.48 158.721 299.736C158.297 299.984 157.801 300.108 157.233 300.108C156.649 300.108 156.121 299.964 155.649 299.676C155.177 299.388 154.805 298.984 154.533 298.464C154.261 297.944 154.125 297.352 154.125 296.688ZM159.693 296.7C159.693 296.204 159.593 295.772 159.393 295.404C159.193 295.036 158.921 294.756 158.577 294.564C158.241 294.364 157.869 294.264 157.461 294.264C157.053 294.264 156.681 294.36 156.345 294.552C156.009 294.744 155.741 295.024 155.541 295.392C155.341 295.76 155.241 296.192 155.241 296.688C155.241 297.192 155.341 297.632 155.541 298.008C155.741 298.376 156.009 298.66 156.345 298.86C156.681 299.052 157.053 299.148 157.461 299.148C157.869 299.148 158.241 299.052 158.577 298.86C158.921 298.66 159.193 298.376 159.393 298.008C159.593 297.632 159.693 297.196 159.693 296.7ZM163.735 291.12V300H162.643V291.12H163.735ZM166.688 293.424V300H165.596V293.424H166.688ZM171.753 293.304C172.553 293.304 173.201 293.548 173.697 294.036C174.193 294.516 174.441 295.212 174.441 296.124V300H173.361V296.28C173.361 295.624 173.197 295.124 172.869 294.78C172.541 294.428 172.093 294.252 171.525 294.252C170.949 294.252 170.489 294.432 170.145 294.792C169.809 295.152 169.641 295.676 169.641 296.364V300H168.549V293.424H169.641V294.36C169.857 294.024 170.149 293.764 170.517 293.58C170.893 293.396 171.305 293.304 171.753 293.304ZM177.317 293.424V300H176.225V293.424H177.317ZM179.994 299.1H183.222V300H178.746V299.1L181.938 294.312H178.77V293.424H183.198V294.312L179.994 299.1ZM185.731 293.424V300H184.639V293.424H185.731ZM198.699 293.304C199.211 293.304 199.667 293.412 200.067 293.628C200.467 293.836 200.783 294.152 201.015 294.576C201.247 295 201.363 295.516 201.363 296.124V300H200.283V296.28C200.283 295.624 200.119 295.124 199.791 294.78C199.471 294.428 199.035 294.252 198.483 294.252C197.915 294.252 197.463 294.436 197.127 294.804C196.791 295.164 196.623 295.688 196.623 296.376V300H195.543V296.28C195.543 295.624 195.379 295.124 195.051 294.78C194.731 294.428 194.295 294.252 193.743 294.252C193.175 294.252 192.723 294.436 192.387 294.804C192.051 295.164 191.883 295.688 191.883 296.376V300H190.791V293.424H191.883V294.372C192.099 294.028 192.387 293.764 192.747 293.58C193.115 293.396 193.519 293.304 193.959 293.304C194.511 293.304 194.999 293.428 195.423 293.676C195.847 293.924 196.163 294.288 196.371 294.768C196.555 294.304 196.859 293.944 197.283 293.688C197.707 293.432 198.179 293.304 198.699 293.304ZM204.246 293.424V300H203.154V293.424H204.246ZM217.215 293.304C217.727 293.304 218.183 293.412 218.583 293.628C218.983 293.836 219.299 294.152 219.531 294.576C219.763 295 219.879 295.516 219.879 296.124V300H218.799V296.28C218.799 295.624 218.635 295.124 218.307 294.78C217.987 294.428 217.551 294.252 216.999 294.252C216.431 294.252 215.979 294.436 215.643 294.804C215.307 295.164 215.139 295.688 215.139 296.376V300H214.059V296.28C214.059 295.624 213.895 295.124 213.567 294.78C213.247 294.428 212.811 294.252 212.259 294.252C211.691 294.252 211.239 294.436 210.903 294.804C210.567 295.164 210.399 295.688 210.399 296.376V300H209.307V293.424H210.399V294.372C210.615 294.028 210.903 293.764 211.263 293.58C211.631 293.396 212.035 293.304 212.475 293.304C213.027 293.304 213.515 293.428 213.939 293.676C214.363 293.924 214.679 294.288 214.887 294.768C215.071 294.304 215.375 293.944 215.799 293.688C216.223 293.432 216.695 293.304 217.215 293.304ZM227.67 296.46C227.67 296.668 227.658 296.888 227.634 297.12H222.378C222.418 297.768 222.638 298.276 223.038 298.644C223.446 299.004 223.938 299.184 224.514 299.184C224.986 299.184 225.378 299.076 225.69 298.86C226.01 298.636 226.234 298.34 226.362 297.972H227.538C227.362 298.604 227.01 299.12 226.482 299.52C225.954 299.912 225.298 300.108 224.514 300.108C223.89 300.108 223.33 299.968 222.834 299.688C222.346 299.408 221.962 299.012 221.682 298.5C221.402 297.98 221.262 297.38 221.262 296.7C221.262 296.02 221.398 295.424 221.67 294.912C221.942 294.4 222.322 294.008 222.81 293.736C223.306 293.456 223.874 293.316 224.514 293.316C225.138 293.316 225.69 293.452 226.17 293.724C226.65 293.996 227.018 294.372 227.274 294.852C227.538 295.324 227.67 295.86 227.67 296.46ZM226.542 296.232C226.542 295.816 226.45 295.46 226.266 295.164C226.082 294.86 225.83 294.632 225.51 294.48C225.198 294.32 224.85 294.24 224.466 294.24C223.914 294.24 223.442 294.416 223.05 294.768C222.666 295.12 222.446 295.608 222.39 296.232H226.542ZM230.204 294.492C230.396 294.116 230.668 293.824 231.02 293.616C231.38 293.408 231.816 293.304 232.328 293.304V294.432H232.04C230.816 294.432 230.204 295.096 230.204 296.424V300H229.112V293.424H230.204V294.492ZM233.18 296.688C233.18 296.016 233.316 295.428 233.588 294.924C233.86 294.412 234.232 294.016 234.704 293.736C235.184 293.456 235.716 293.316 236.3 293.316C236.876 293.316 237.376 293.44 237.8 293.688C238.224 293.936 238.54 294.248 238.748 294.624V293.424H239.852V300H238.748V298.776C238.532 299.16 238.208 299.48 237.776 299.736C237.352 299.984 236.856 300.108 236.288 300.108C235.704 300.108 235.176 299.964 234.704 299.676C234.232 299.388 233.86 298.984 233.588 298.464C233.316 297.944 233.18 297.352 233.18 296.688ZM238.748 296.7C238.748 296.204 238.648 295.772 238.448 295.404C238.248 295.036 237.976 294.756 237.632 294.564C237.296 294.364 236.924 294.264 236.516 294.264C236.108 294.264 235.736 294.36 235.4 294.552C235.064 294.744 234.796 295.024 234.596 295.392C234.396 295.76 234.296 296.192 234.296 296.688C234.296 297.192 234.396 297.632 234.596 298.008C234.796 298.376 235.064 298.66 235.4 298.86C235.736 299.052 236.108 299.148 236.516 299.148C236.924 299.148 237.296 299.052 237.632 298.86C237.976 298.66 238.248 298.376 238.448 298.008C238.648 297.632 238.748 297.196 238.748 296.7ZM245.369 300L242.789 297.096V300H241.697V291.12H242.789V296.34L245.321 293.424H246.845L243.749 296.7L246.857 300H245.369ZM57.924 314.46C57.924 314.668 57.912 314.888 57.888 315.12H52.632C52.672 315.768 52.892 316.276 53.292 316.644C53.7 317.004 54.192 317.184 54.768 317.184C55.24 317.184 55.632 317.076 55.944 316.86C56.264 316.636 56.488 316.34 56.616 315.972H57.792C57.616 316.604 57.264 317.12 56.736 317.52C56.208 317.912 55.552 318.108 54.768 318.108C54.144 318.108 53.584 317.968 53.088 317.688C52.6 317.408 52.216 317.012 51.936 316.5C51.656 315.98 51.516 315.38 51.516 314.7C51.516 314.02 51.652 313.424 51.924 312.912C52.196 312.4 52.576 312.008 53.064 311.736C53.56 311.456 54.128 311.316 54.768 311.316C55.392 311.316 55.944 311.452 56.424 311.724C56.904 311.996 57.272 312.372 57.528 312.852C57.792 313.324 57.924 313.86 57.924 314.46ZM56.796 314.232C56.796 313.816 56.704 313.46 56.52 313.164C56.336 312.86 56.084 312.632 55.764 312.48C55.452 312.32 55.104 312.24 54.72 312.24C54.168 312.24 53.696 312.416 53.304 312.768C52.92 313.12 52.7 313.608 52.644 314.232H56.796ZM58.9574 314.688C58.9574 314.016 59.0934 313.428 59.3654 312.924C59.6374 312.412 60.0094 312.016 60.4814 311.736C60.9614 311.456 61.4974 311.316 62.0894 311.316C62.6014 311.316 63.0774 311.436 63.5174 311.676C63.9574 311.908 64.2934 312.216 64.5254 312.6V309.12H65.6294V318H64.5254V316.764C64.3094 317.156 63.9894 317.48 63.5654 317.736C63.1414 317.984 62.6454 318.108 62.0774 318.108C61.4934 318.108 60.9614 317.964 60.4814 317.676C60.0094 317.388 59.6374 316.984 59.3654 316.464C59.0934 315.944 58.9574 315.352 58.9574 314.688ZM64.5254 314.7C64.5254 314.204 64.4254 313.772 64.2254 313.404C64.0254 313.036 63.7534 312.756 63.4094 312.564C63.0734 312.364 62.7014 312.264 62.2934 312.264C61.8854 312.264 61.5134 312.36 61.1774 312.552C60.8414 312.744 60.5734 313.024 60.3734 313.392C60.1734 313.76 60.0734 314.192 60.0734 314.688C60.0734 315.192 60.1734 315.632 60.3734 316.008C60.5734 316.376 60.8414 316.66 61.1774 316.86C61.5134 317.052 61.8854 317.148 62.2934 317.148C62.7014 317.148 63.0734 317.052 63.4094 316.86C63.7534 316.66 64.0254 316.376 64.2254 316.008C64.4254 315.632 64.5254 315.196 64.5254 314.7ZM68.0388 310.356C67.8308 310.356 67.6548 310.284 67.5108 310.14C67.3668 309.996 67.2948 309.82 67.2948 309.612C67.2948 309.404 67.3668 309.228 67.5108 309.084C67.6548 308.94 67.8308 308.868 68.0388 308.868C68.2388 308.868 68.4068 308.94 68.5428 309.084C68.6868 309.228 68.7588 309.404 68.7588 309.612C68.7588 309.82 68.6868 309.996 68.5428 310.14C68.4068 310.284 68.2388 310.356 68.0388 310.356ZM68.5668 311.424V318H67.4748V311.424H68.5668ZM76.0919 311.424L72.1319 321.096H71.0039L72.2999 317.928L69.6479 311.424H70.8599L72.9239 316.752L74.9639 311.424H76.0919ZM80.0576 318.108C79.4416 318.108 78.8816 317.968 78.3776 317.688C77.8816 317.408 77.4896 317.012 77.2016 316.5C76.9216 315.98 76.7816 315.38 76.7816 314.7C76.7816 314.028 76.9256 313.436 77.2136 312.924C77.5096 312.404 77.9096 312.008 78.4136 311.736C78.9176 311.456 79.4816 311.316 80.1056 311.316C80.7296 311.316 81.2936 311.456 81.7976 311.736C82.3016 312.008 82.6976 312.4 82.9856 312.912C83.2816 313.424 83.4296 314.02 83.4296 314.7C83.4296 315.38 83.2776 315.98 82.9736 316.5C82.6776 317.012 82.2736 317.408 81.7616 317.688C81.2496 317.968 80.6816 318.108 80.0576 318.108ZM80.0576 317.148C80.4496 317.148 80.8176 317.056 81.1616 316.872C81.5056 316.688 81.7816 316.412 81.9896 316.044C82.2056 315.676 82.3136 315.228 82.3136 314.7C82.3136 314.172 82.2096 313.724 82.0016 313.356C81.7936 312.988 81.5216 312.716 81.1856 312.54C80.8496 312.356 80.4856 312.264 80.0936 312.264C79.6936 312.264 79.3256 312.356 78.9896 312.54C78.6616 312.716 78.3976 312.988 78.1976 313.356C77.9976 313.724 77.8976 314.172 77.8976 314.7C77.8976 315.236 77.9936 315.688 78.1856 316.056C78.3856 316.424 78.6496 316.7 78.9776 316.884C79.3056 317.06 79.6656 317.148 80.0576 317.148ZM85.9574 312.492C86.1494 312.116 86.4214 311.824 86.7734 311.616C87.1334 311.408 87.5694 311.304 88.0814 311.304V312.432H87.7934C86.5694 312.432 85.9574 313.096 85.9574 314.424V318H84.8654V311.424H85.9574V312.492ZM91.67 318.108C91.166 318.108 90.714 318.024 90.314 317.856C89.914 317.68 89.598 317.44 89.366 317.136C89.134 316.824 89.006 316.468 88.982 316.068H90.11C90.142 316.396 90.294 316.664 90.566 316.872C90.846 317.08 91.21 317.184 91.658 317.184C92.074 317.184 92.402 317.092 92.642 316.908C92.882 316.724 93.002 316.492 93.002 316.212C93.002 315.924 92.874 315.712 92.618 315.576C92.362 315.432 91.966 315.292 91.43 315.156C90.942 315.028 90.542 314.9 90.23 314.772C89.926 314.636 89.662 314.44 89.438 314.184C89.222 313.92 89.114 313.576 89.114 313.152C89.114 312.816 89.214 312.508 89.414 312.228C89.614 311.948 89.898 311.728 90.266 311.568C90.634 311.4 91.054 311.316 91.526 311.316C92.254 311.316 92.842 311.5 93.29 311.868C93.738 312.236 93.978 312.74 94.01 313.38H92.918C92.894 313.036 92.754 312.76 92.498 312.552C92.25 312.344 91.914 312.24 91.49 312.24C91.098 312.24 90.786 312.324 90.554 312.492C90.322 312.66 90.206 312.88 90.206 313.152C90.206 313.368 90.274 313.548 90.41 313.692C90.554 313.828 90.73 313.94 90.938 314.028C91.154 314.108 91.45 314.2 91.826 314.304C92.298 314.432 92.682 314.56 92.978 314.688C93.274 314.808 93.526 314.992 93.734 315.24C93.95 315.488 94.062 315.812 94.07 316.212C94.07 316.572 93.97 316.896 93.77 317.184C93.57 317.472 93.286 317.7 92.918 317.868C92.558 318.028 92.142 318.108 91.67 318.108ZM101.444 311.424V318H100.352V317.028C100.144 317.364 99.8515 317.628 99.4755 317.82C99.1075 318.004 98.6995 318.096 98.2515 318.096C97.7395 318.096 97.2795 317.992 96.8715 317.784C96.4635 317.568 96.1395 317.248 95.8995 316.824C95.6675 316.4 95.5515 315.884 95.5515 315.276V311.424H96.6315V315.132C96.6315 315.78 96.7955 316.28 97.1235 316.632C97.4515 316.976 97.8995 317.148 98.4675 317.148C99.0515 317.148 99.5115 316.968 99.8475 316.608C100.184 316.248 100.352 315.724 100.352 315.036V311.424H101.444ZM106.491 311.304C107.291 311.304 107.939 311.548 108.435 312.036C108.931 312.516 109.179 313.212 109.179 314.124V318H108.099V314.28C108.099 313.624 107.935 313.124 107.607 312.78C107.279 312.428 106.831 312.252 106.263 312.252C105.687 312.252 105.227 312.432 104.883 312.792C104.547 313.152 104.379 313.676 104.379 314.364V318H103.287V311.424H104.379V312.36C104.595 312.024 104.887 311.764 105.255 311.58C105.631 311.396 106.043 311.304 106.491 311.304ZM116.795 311.424V318H115.703V317.028C115.495 317.364 115.203 317.628 114.827 317.82C114.459 318.004 114.051 318.096 113.603 318.096C113.091 318.096 112.631 317.992 112.223 317.784C111.815 317.568 111.491 317.248 111.251 316.824C111.019 316.4 110.903 315.884 110.903 315.276V311.424H111.983V315.132C111.983 315.78 112.147 316.28 112.475 316.632C112.803 316.976 113.251 317.148 113.819 317.148C114.403 317.148 114.863 316.968 115.199 316.608C115.535 316.248 115.703 315.724 115.703 315.036V311.424H116.795ZM119.455 317.1H122.683V318H118.207V317.1L121.399 312.312H118.231V311.424H122.659V312.312L119.455 317.1ZM126.891 314.688C126.891 314.016 127.027 313.428 127.299 312.924C127.571 312.412 127.943 312.016 128.415 311.736C128.895 311.456 129.431 311.316 130.023 311.316C130.535 311.316 131.011 311.436 131.451 311.676C131.891 311.908 132.227 312.216 132.459 312.6V309.12H133.563V318H132.459V316.764C132.243 317.156 131.923 317.48 131.499 317.736C131.075 317.984 130.579 318.108 130.011 318.108C129.427 318.108 128.895 317.964 128.415 317.676C127.943 317.388 127.571 316.984 127.299 316.464C127.027 315.944 126.891 315.352 126.891 314.688ZM132.459 314.7C132.459 314.204 132.359 313.772 132.159 313.404C131.959 313.036 131.687 312.756 131.343 312.564C131.007 312.364 130.635 312.264 130.227 312.264C129.819 312.264 129.447 312.36 129.111 312.552C128.775 312.744 128.507 313.024 128.307 313.392C128.107 313.76 128.007 314.192 128.007 314.688C128.007 315.192 128.107 315.632 128.307 316.008C128.507 316.376 128.775 316.66 129.111 316.86C129.447 317.052 129.819 317.148 130.227 317.148C130.635 317.148 131.007 317.052 131.343 316.86C131.687 316.66 131.959 316.376 132.159 316.008C132.359 315.632 132.459 315.196 132.459 314.7ZM138.276 318.108C137.66 318.108 137.1 317.968 136.596 317.688C136.1 317.408 135.708 317.012 135.42 316.5C135.14 315.98 135 315.38 135 314.7C135 314.028 135.144 313.436 135.432 312.924C135.728 312.404 136.128 312.008 136.632 311.736C137.136 311.456 137.7 311.316 138.324 311.316C138.948 311.316 139.512 311.456 140.016 311.736C140.52 312.008 140.916 312.4 141.204 312.912C141.5 313.424 141.648 314.02 141.648 314.7C141.648 315.38 141.496 315.98 141.192 316.5C140.896 317.012 140.492 317.408 139.98 317.688C139.468 317.968 138.9 318.108 138.276 318.108ZM138.276 317.148C138.668 317.148 139.036 317.056 139.38 316.872C139.724 316.688 140 316.412 140.208 316.044C140.424 315.676 140.532 315.228 140.532 314.7C140.532 314.172 140.428 313.724 140.22 313.356C140.012 312.988 139.74 312.716 139.404 312.54C139.068 312.356 138.704 312.264 138.312 312.264C137.912 312.264 137.544 312.356 137.208 312.54C136.88 312.716 136.616 312.988 136.416 313.356C136.216 313.724 136.116 314.172 136.116 314.7C136.116 315.236 136.212 315.688 136.404 316.056C136.604 316.424 136.868 316.7 137.196 316.884C137.524 317.06 137.884 317.148 138.276 317.148ZM145.796 311.316C146.364 311.316 146.86 311.44 147.284 311.688C147.716 311.936 148.036 312.248 148.244 312.624V311.424H149.348V318.144C149.348 318.744 149.22 319.276 148.964 319.74C148.708 320.212 148.34 320.58 147.86 320.844C147.388 321.108 146.836 321.24 146.204 321.24C145.34 321.24 144.62 321.036 144.044 320.628C143.468 320.22 143.128 319.664 143.024 318.96H144.104C144.224 319.36 144.472 319.68 144.848 319.92C145.224 320.168 145.676 320.292 146.204 320.292C146.804 320.292 147.292 320.104 147.668 319.728C148.052 319.352 148.244 318.824 148.244 318.144V316.764C148.028 317.148 147.708 317.468 147.284 317.724C146.86 317.98 146.364 318.108 145.796 318.108C145.212 318.108 144.68 317.964 144.2 317.676C143.728 317.388 143.356 316.984 143.084 316.464C142.812 315.944 142.676 315.352 142.676 314.688C142.676 314.016 142.812 313.428 143.084 312.924C143.356 312.412 143.728 312.016 144.2 311.736C144.68 311.456 145.212 311.316 145.796 311.316ZM148.244 314.7C148.244 314.204 148.144 313.772 147.944 313.404C147.744 313.036 147.472 312.756 147.128 312.564C146.792 312.364 146.42 312.264 146.012 312.264C145.604 312.264 145.232 312.36 144.896 312.552C144.56 312.744 144.292 313.024 144.092 313.392C143.892 313.76 143.792 314.192 143.792 314.688C143.792 315.192 143.892 315.632 144.092 316.008C144.292 316.376 144.56 316.66 144.896 316.86C145.232 317.052 145.604 317.148 146.012 317.148C146.42 317.148 146.792 317.052 147.128 316.86C147.472 316.66 147.744 316.376 147.944 316.008C148.144 315.632 148.244 315.196 148.244 314.7ZM147.932 309.216C147.932 309.672 147.78 310.048 147.476 310.344C147.18 310.632 146.764 310.776 146.228 310.776C145.692 310.776 145.272 310.632 144.968 310.344C144.664 310.048 144.512 309.668 144.512 309.204V309H145.16C145.16 309.304 145.244 309.536 145.412 309.696C145.58 309.848 145.852 309.924 146.228 309.924C146.596 309.924 146.864 309.848 147.032 309.696C147.2 309.536 147.284 309.304 147.284 309H147.932V309.216ZM152.286 312.492C152.478 312.116 152.75 311.824 153.102 311.616C153.462 311.408 153.898 311.304 154.41 311.304V312.432H154.122C152.898 312.432 152.286 313.096 152.286 314.424V318H151.194V311.424H152.286V312.492ZM161.502 311.424V318H160.41V317.028C160.202 317.364 159.91 317.628 159.534 317.82C159.166 318.004 158.758 318.096 158.31 318.096C157.798 318.096 157.338 317.992 156.93 317.784C156.522 317.568 156.198 317.248 155.958 316.824C155.726 316.4 155.61 315.884 155.61 315.276V311.424H156.69V315.132C156.69 315.78 156.854 316.28 157.182 316.632C157.51 316.976 157.958 317.148 158.526 317.148C159.11 317.148 159.57 316.968 159.906 316.608C160.242 316.248 160.41 315.724 160.41 315.036V311.424H161.502ZM172.209 311.424L168.249 321.096H167.121L168.417 317.928L165.765 311.424H166.977L169.041 316.752L171.081 311.424H172.209ZM179.307 314.46C179.307 314.668 179.295 314.888 179.271 315.12H174.015C174.055 315.768 174.275 316.276 174.675 316.644C175.083 317.004 175.575 317.184 176.151 317.184C176.623 317.184 177.015 317.076 177.327 316.86C177.647 316.636 177.871 316.34 177.999 315.972H179.175C178.999 316.604 178.647 317.12 178.119 317.52C177.591 317.912 176.935 318.108 176.151 318.108C175.527 318.108 174.967 317.968 174.471 317.688C173.983 317.408 173.599 317.012 173.319 316.5C173.039 315.98 172.899 315.38 172.899 314.7C172.899 314.02 173.035 313.424 173.307 312.912C173.579 312.4 173.959 312.008 174.447 311.736C174.943 311.456 175.511 311.316 176.151 311.316C176.775 311.316 177.327 311.452 177.807 311.724C178.287 311.996 178.655 312.372 178.911 312.852C179.175 313.324 179.307 313.86 179.307 314.46ZM178.179 314.232C178.179 313.816 178.087 313.46 177.903 313.164C177.719 312.86 177.467 312.632 177.147 312.48C176.835 312.32 176.487 312.24 176.103 312.24C175.551 312.24 175.079 312.416 174.687 312.768C174.303 313.12 174.083 313.608 174.027 314.232H178.179ZM181.84 312.492C182.032 312.116 182.304 311.824 182.656 311.616C183.016 311.408 183.452 311.304 183.964 311.304V312.432H183.676C182.452 312.432 181.84 313.096 181.84 314.424V318H180.748V311.424H181.84V312.492ZM184.817 314.688C184.817 314.016 184.953 313.428 185.225 312.924C185.497 312.412 185.869 312.016 186.341 311.736C186.821 311.456 187.357 311.316 187.949 311.316C188.461 311.316 188.937 311.436 189.377 311.676C189.817 311.908 190.153 312.216 190.385 312.6V309.12H191.489V318H190.385V316.764C190.169 317.156 189.849 317.48 189.425 317.736C189.001 317.984 188.505 318.108 187.937 318.108C187.353 318.108 186.821 317.964 186.341 317.676C185.869 317.388 185.497 316.984 185.225 316.464C184.953 315.944 184.817 315.352 184.817 314.688ZM190.385 314.7C190.385 314.204 190.285 313.772 190.085 313.404C189.885 313.036 189.613 312.756 189.269 312.564C188.933 312.364 188.561 312.264 188.153 312.264C187.745 312.264 187.373 312.36 187.037 312.552C186.701 312.744 186.433 313.024 186.233 313.392C186.033 313.76 185.933 314.192 185.933 314.688C185.933 315.192 186.033 315.632 186.233 316.008C186.433 316.376 186.701 316.66 187.037 316.86C187.373 317.052 187.745 317.148 188.153 317.148C188.561 317.148 188.933 317.052 189.269 316.86C189.613 316.66 189.885 316.376 190.085 316.008C190.285 315.632 190.385 315.196 190.385 314.7ZM199.334 314.46C199.334 314.668 199.322 314.888 199.298 315.12H194.042C194.082 315.768 194.302 316.276 194.702 316.644C195.11 317.004 195.602 317.184 196.178 317.184C196.65 317.184 197.042 317.076 197.354 316.86C197.674 316.636 197.898 316.34 198.026 315.972H199.202C199.026 316.604 198.674 317.12 198.146 317.52C197.618 317.912 196.962 318.108 196.178 318.108C195.554 318.108 194.994 317.968 194.498 317.688C194.01 317.408 193.626 317.012 193.346 316.5C193.066 315.98 192.926 315.38 192.926 314.7C192.926 314.02 193.062 313.424 193.334 312.912C193.606 312.4 193.986 312.008 194.474 311.736C194.97 311.456 195.538 311.316 196.178 311.316C196.802 311.316 197.354 311.452 197.834 311.724C198.314 311.996 198.682 312.372 198.938 312.852C199.202 313.324 199.334 313.86 199.334 314.46ZM198.206 314.232C198.206 313.816 198.114 313.46 197.93 313.164C197.746 312.86 197.494 312.632 197.174 312.48C196.862 312.32 196.514 312.24 196.13 312.24C195.578 312.24 195.106 312.416 194.714 312.768C194.33 313.12 194.11 313.608 194.054 314.232H198.206ZM203.104 318.108C202.6 318.108 202.148 318.024 201.748 317.856C201.348 317.68 201.032 317.44 200.8 317.136C200.568 316.824 200.44 316.468 200.416 316.068H201.544C201.576 316.396 201.728 316.664 202 316.872C202.28 317.08 202.644 317.184 203.092 317.184C203.508 317.184 203.836 317.092 204.076 316.908C204.316 316.724 204.436 316.492 204.436 316.212C204.436 315.924 204.308 315.712 204.052 315.576C203.796 315.432 203.4 315.292 202.864 315.156C202.376 315.028 201.976 314.9 201.664 314.772C201.36 314.636 201.096 314.44 200.872 314.184C200.656 313.92 200.548 313.576 200.548 313.152C200.548 312.816 200.648 312.508 200.848 312.228C201.048 311.948 201.332 311.728 201.7 311.568C202.068 311.4 202.488 311.316 202.96 311.316C203.688 311.316 204.276 311.5 204.724 311.868C205.172 312.236 205.412 312.74 205.444 313.38H204.352C204.328 313.036 204.188 312.76 203.932 312.552C203.684 312.344 203.348 312.24 202.924 312.24C202.532 312.24 202.22 312.324 201.988 312.492C201.756 312.66 201.64 312.88 201.64 313.152C201.64 313.368 201.708 313.548 201.844 313.692C201.988 313.828 202.164 313.94 202.372 314.028C202.588 314.108 202.884 314.2 203.26 314.304C203.732 314.432 204.116 314.56 204.412 314.688C204.708 314.808 204.96 314.992 205.168 315.24C205.384 315.488 205.496 315.812 205.504 316.212C205.504 316.572 205.404 316.896 205.204 317.184C205.004 317.472 204.72 317.7 204.352 317.868C203.992 318.028 203.576 318.108 203.104 318.108ZM207.609 310.356C207.401 310.356 207.225 310.284 207.081 310.14C206.937 309.996 206.865 309.82 206.865 309.612C206.865 309.404 206.937 309.228 207.081 309.084C207.225 308.94 207.401 308.868 207.609 308.868C207.809 308.868 207.977 308.94 208.113 309.084C208.257 309.228 208.329 309.404 208.329 309.612C208.329 309.82 208.257 309.996 208.113 310.14C207.977 310.284 207.809 310.356 207.609 310.356ZM208.137 311.424V318H207.045V311.424H208.137ZM213.202 311.304C214.002 311.304 214.65 311.548 215.146 312.036C215.642 312.516 215.89 313.212 215.89 314.124V318H214.81V314.28C214.81 313.624 214.646 313.124 214.318 312.78C213.99 312.428 213.542 312.252 212.974 312.252C212.398 312.252 211.938 312.432 211.594 312.792C211.258 313.152 211.09 313.676 211.09 314.364V318H209.998V311.424H211.09V312.36C211.306 312.024 211.598 311.764 211.966 311.58C212.342 311.396 212.754 311.304 213.202 311.304ZM218.238 310.356C218.03 310.356 217.854 310.284 217.71 310.14C217.566 309.996 217.494 309.82 217.494 309.612C217.494 309.404 217.566 309.228 217.71 309.084C217.854 308.94 218.03 308.868 218.238 308.868C218.438 308.868 218.606 308.94 218.742 309.084C218.886 309.228 218.958 309.404 218.958 309.612C218.958 309.82 218.886 309.996 218.742 310.14C218.606 310.284 218.438 310.356 218.238 310.356ZM218.766 311.424V318H217.674V311.424H218.766ZM221.443 317.1H224.671V318H220.195V317.1L223.387 312.312H220.219V311.424H224.647V312.312L221.443 317.1ZM226.436 318.072C226.228 318.072 226.052 318 225.908 317.856C225.764 317.712 225.692 317.536 225.692 317.328C225.692 317.12 225.764 316.944 225.908 316.8C226.052 316.656 226.228 316.584 226.436 316.584C226.636 316.584 226.804 316.656 226.94 316.8C227.084 316.944 227.156 317.12 227.156 317.328C227.156 317.536 227.084 317.712 226.94 317.856C226.804 318 226.636 318.072 226.436 318.072Z" fill="#A3A3A3"/>
<g style="mix-blend-mode:overlay">
<path d="M35 35L36.5 249.5C68.9666 158.777 91.8287 109.944 160.5 35H35Z" fill="url(#paint3_linear_73_13632)" fill-opacity="0.5"/>
</g>
<g style="mix-blend-mode:overlay">
<path d="M285 396L283.805 182C257.935 272.511 239.718 321.231 185 396H285Z" fill="url(#paint4_linear_73_13632)" fill-opacity="0.5"/>
</g>
</g>
<rect x="35.5" y="35.5" width="249" height="359" rx="9.5" stroke="#D7B676"/>
</g>
<defs>
<filter id="filter0_d_73_13632" x="0" y="0" width="320" height="430" filterUnits="userSpaceOnUse" color-interpolation-filters="sRGB">
<feFlood flood-opacity="0" result="BackgroundImageFix"/>
<feColorMatrix in="SourceAlpha" type="matrix" values="0 0 0 0 0 0 0 0 0 0 0 0 0 0 0 0 0 0 127 0" result="hardAlpha"/>
<feOffset/>
<feGaussianBlur stdDeviation="17.5"/>
<feComposite in2="hardAlpha" operator="out"/>
<feColorMatrix type="matrix" values="0 0 0 0 0.481523 0 0 0 0 0.304809 0 0 0 0 0.754167 0 0 0 0.16 0"/>
<feBlend mode="normal" in2="BackgroundImageFix" result="effect1_dropShadow_73_13632"/>
<feBlend mode="normal" in="SourceGraphic" in2="effect1_dropShadow_73_13632" result="shape"/>
</filter>
<filter id="filter1_d_73_13632" x="0" y="0" width="320" height="430" filterUnits="userSpaceOnUse" color-interpolation-filters="sRGB">
<feFlood flood-opacity="0" result="BackgroundImageFix"/>
<feColorMatrix in="SourceAlpha" type="matrix" values="0 0 0 0 0 0 0 0 0 0 0 0 0 0 0 0 0 0 127 0" result="hardAlpha"/>
<feOffset/>
<feGaussianBlur stdDeviation="17.5"/>
<feComposite in2="hardAlpha" operator="out"/>
<feColorMatrix type="matrix" values="0 0 0 0 0.481523 0 0 0 0 0.304809 0 0 0 0 0.754167 0 0 0 0.16 0"/>
<feBlend mode="normal" in2="BackgroundImageFix" result="effect1_dropShadow_73_13632"/>
<feBlend mode="normal" in="SourceGraphic" in2="effect1_dropShadow_73_13632" result="shape"/>
</filter>
<linearGradient id="paint0_linear_73_13632" x1="160" y1="35" x2="160" y2="393.95" gradientUnits="userSpaceOnUse">
<stop stop-color="#110800"/>
<stop offset="1" stop-color="#231100"/>
</linearGradient>
<radialGradient id="paint1_radial_73_13632" cx="0" cy="0" r="1" gradientUnits="userSpaceOnUse" gradientTransform="translate(160 35) rotate(90) scale(310.078 215.332)">
<stop stop-color="#FE6007"/>
<stop offset="1" stop-color="#FE6007" stop-opacity="0"/>
</radialGradient>
<linearGradient id="paint2_linear_73_13632" x1="48" y1="363" x2="184" y2="362.5" gradientUnits="userSpaceOnUse">
<stop stop-color="#F9BF2D"/>
<stop offset="1" stop-color="#FF9152"/>
</linearGradient>
<linearGradient id="paint3_linear_73_13632" x1="127.854" y1="148.454" x2="104.516" y2="85.2781" gradientUnits="userSpaceOnUse">
<stop stop-color="white" stop-opacity="0"/>
<stop offset="1" stop-color="white"/>
</linearGradient>
<linearGradient id="paint4_linear_73_13632" x1="211.013" y1="282.81" x2="238.305" y2="341.817" gradientUnits="userSpaceOnUse">
<stop stop-color="white" stop-opacity="0"/>
<stop offset="1" stop-color="white"/>
</linearGradient>
<clipPath id="clip0_73_13632">
<rect x="35" y="35" width="250" height="360" rx="10" fill="white"/>
</clipPath>
</defs>
</svg>
